G75*
%MOIN*%
%OFA0B0*%
%FSLAX25Y25*%
%IPPOS*%
%LPD*%
%AMOC8*
5,1,8,0,0,1.08239X$1,22.5*
%
%ADD10C,0.00400*%
%ADD11C,0.00800*%
D10*
X0008102Y0005543D02*
X0008823Y0006265D01*
X0008823Y0009150D01*
X0008102Y0008429D02*
X0009545Y0008429D01*
X0011002Y0007707D02*
X0012445Y0007707D01*
X0011723Y0009150D02*
X0011723Y0005543D01*
X0013902Y0005543D02*
X0015345Y0005543D01*
X0014624Y0005543D02*
X0014624Y0008429D01*
X0015345Y0008429D01*
X0016810Y0008429D02*
X0018974Y0008429D01*
X0019695Y0007707D01*
X0019695Y0006265D01*
X0018974Y0005543D01*
X0016810Y0005543D01*
X0016810Y0004822D02*
X0016810Y0008429D01*
X0014624Y0009871D02*
X0014624Y0010593D01*
X0011723Y0009150D02*
X0011002Y0009871D01*
X0016810Y0004822D02*
X0017531Y0004101D01*
X0018252Y0004101D01*
X0021160Y0004822D02*
X0024045Y0004822D01*
X0025510Y0006265D02*
X0025510Y0007707D01*
X0026231Y0008429D01*
X0028395Y0008429D01*
X0028395Y0009871D02*
X0028395Y0005543D01*
X0026231Y0005543D01*
X0025510Y0006265D01*
X0029860Y0005543D02*
X0032024Y0005543D01*
X0032746Y0006265D01*
X0032746Y0007707D01*
X0032024Y0008429D01*
X0029860Y0008429D01*
X0034210Y0007707D02*
X0034210Y0006265D01*
X0034932Y0005543D01*
X0037096Y0005543D01*
X0037096Y0004101D02*
X0037096Y0008429D01*
X0034932Y0008429D01*
X0034210Y0007707D01*
X0038561Y0009871D02*
X0041446Y0005543D01*
X0042907Y0008429D02*
X0043628Y0008429D01*
X0045071Y0006986D01*
X0045071Y0005543D02*
X0045071Y0008429D01*
X0046536Y0007707D02*
X0046536Y0006986D01*
X0049421Y0006986D01*
X0049421Y0006265D02*
X0049421Y0007707D01*
X0048700Y0008429D01*
X0047257Y0008429D01*
X0046536Y0007707D01*
X0047257Y0005543D02*
X0048700Y0005543D01*
X0049421Y0006265D01*
X0050879Y0005543D02*
X0051600Y0006265D01*
X0051600Y0009150D01*
X0052321Y0008429D02*
X0050879Y0008429D01*
X0053786Y0008429D02*
X0055950Y0008429D01*
X0056671Y0007707D01*
X0055950Y0006986D01*
X0054507Y0006986D01*
X0053786Y0006265D01*
X0054507Y0005543D01*
X0056671Y0005543D01*
X0058136Y0005543D02*
X0058136Y0007707D01*
X0058858Y0008429D01*
X0060300Y0008429D01*
X0060300Y0006986D02*
X0058136Y0006986D01*
X0058136Y0005543D02*
X0060300Y0005543D01*
X0061022Y0006265D01*
X0060300Y0006986D01*
X0062486Y0007707D02*
X0062486Y0005543D01*
X0063929Y0005543D02*
X0063929Y0007707D01*
X0063208Y0008429D01*
X0062486Y0007707D01*
X0063929Y0007707D02*
X0064650Y0008429D01*
X0065372Y0008429D01*
X0065372Y0005543D01*
X0066833Y0005543D02*
X0068997Y0006986D01*
X0066833Y0008429D01*
X0068997Y0009871D02*
X0068997Y0005543D01*
X0070462Y0005543D02*
X0072626Y0005543D01*
X0073347Y0006265D01*
X0073347Y0007707D01*
X0072626Y0008429D01*
X0070462Y0008429D01*
X0074812Y0008429D02*
X0074812Y0005543D01*
X0076976Y0005543D01*
X0077697Y0006265D01*
X0077697Y0008429D01*
X0079162Y0007707D02*
X0079883Y0008429D01*
X0082047Y0008429D01*
X0082047Y0009871D02*
X0082047Y0005543D01*
X0079883Y0005543D01*
X0079162Y0006265D01*
X0079162Y0007707D01*
X0083512Y0007707D02*
X0083512Y0006986D01*
X0086398Y0006986D01*
X0086398Y0006265D02*
X0086398Y0007707D01*
X0085676Y0008429D01*
X0084234Y0008429D01*
X0083512Y0007707D01*
X0084234Y0005543D02*
X0085676Y0005543D01*
X0086398Y0006265D01*
X0087862Y0006265D02*
X0087862Y0007707D01*
X0088584Y0008429D01*
X0090748Y0008429D01*
X0090748Y0009871D02*
X0090748Y0005543D01*
X0088584Y0005543D01*
X0087862Y0006265D01*
X0092213Y0006986D02*
X0094377Y0006986D01*
X0095098Y0006265D01*
X0094377Y0005543D01*
X0092213Y0005543D01*
X0092213Y0007707D01*
X0092934Y0008429D01*
X0094377Y0008429D01*
X0096563Y0008429D02*
X0098727Y0008429D01*
X0099448Y0007707D01*
X0099448Y0006265D01*
X0098727Y0005543D01*
X0096563Y0005543D01*
X0096563Y0004822D02*
X0096563Y0008429D01*
X0096563Y0004822D02*
X0097284Y0004101D01*
X0098005Y0004101D01*
X0103798Y0005543D02*
X0100913Y0009871D01*
X0105263Y0007707D02*
X0105263Y0005543D01*
X0106706Y0005543D02*
X0106706Y0007707D01*
X0105984Y0008429D01*
X0105263Y0007707D01*
X0106706Y0007707D02*
X0107427Y0008429D01*
X0108149Y0008429D01*
X0108149Y0005543D01*
X0109613Y0006265D02*
X0109613Y0007707D01*
X0110335Y0008429D01*
X0111777Y0008429D01*
X0112499Y0007707D01*
X0112499Y0006265D01*
X0111777Y0005543D01*
X0110335Y0005543D01*
X0109613Y0006265D01*
X0113963Y0005543D02*
X0116128Y0005543D01*
X0116849Y0006265D01*
X0116849Y0007707D01*
X0116128Y0008429D01*
X0113963Y0008429D01*
X0118303Y0006265D02*
X0118303Y0005543D01*
X0119024Y0005543D01*
X0119024Y0006265D01*
X0118303Y0006265D01*
X0120489Y0006265D02*
X0120489Y0007707D01*
X0121210Y0008429D01*
X0123374Y0008429D01*
X0123374Y0009871D02*
X0123374Y0005543D01*
X0121210Y0005543D01*
X0120489Y0006265D01*
X0124839Y0005543D02*
X0124839Y0008429D01*
X0127724Y0008429D02*
X0127724Y0006265D01*
X0127003Y0005543D01*
X0124839Y0005543D01*
X0129189Y0005543D02*
X0129189Y0007707D01*
X0129910Y0008429D01*
X0131353Y0008429D01*
X0132074Y0007707D01*
X0133532Y0008429D02*
X0134975Y0008429D01*
X0134253Y0009150D02*
X0134253Y0006265D01*
X0133532Y0005543D01*
X0132074Y0005543D02*
X0132074Y0009871D01*
X0137153Y0009871D02*
X0137153Y0010593D01*
X0137153Y0008429D02*
X0137153Y0005543D01*
X0136432Y0005543D02*
X0137875Y0005543D01*
X0139339Y0005543D02*
X0141504Y0005543D01*
X0142225Y0006265D01*
X0142225Y0007707D01*
X0141504Y0008429D01*
X0139339Y0008429D01*
X0139339Y0004822D01*
X0140061Y0004101D01*
X0140782Y0004101D01*
X0137875Y0008429D02*
X0137153Y0008429D01*
D11*
X0053866Y0153301D02*
X0053868Y0153364D01*
X0053874Y0153426D01*
X0053884Y0153488D01*
X0053897Y0153550D01*
X0053915Y0153610D01*
X0053936Y0153669D01*
X0053961Y0153727D01*
X0053990Y0153783D01*
X0054022Y0153837D01*
X0054057Y0153889D01*
X0054095Y0153938D01*
X0054137Y0153986D01*
X0054181Y0154030D01*
X0054229Y0154072D01*
X0054278Y0154110D01*
X0054330Y0154145D01*
X0054384Y0154177D01*
X0054440Y0154206D01*
X0054498Y0154231D01*
X0054557Y0154252D01*
X0054617Y0154270D01*
X0054679Y0154283D01*
X0054741Y0154293D01*
X0054803Y0154299D01*
X0054866Y0154301D01*
X0054929Y0154299D01*
X0054991Y0154293D01*
X0055053Y0154283D01*
X0055115Y0154270D01*
X0055175Y0154252D01*
X0055234Y0154231D01*
X0055292Y0154206D01*
X0055348Y0154177D01*
X0055402Y0154145D01*
X0055454Y0154110D01*
X0055503Y0154072D01*
X0055551Y0154030D01*
X0055595Y0153986D01*
X0055637Y0153938D01*
X0055675Y0153889D01*
X0055710Y0153837D01*
X0055742Y0153783D01*
X0055771Y0153727D01*
X0055796Y0153669D01*
X0055817Y0153610D01*
X0055835Y0153550D01*
X0055848Y0153488D01*
X0055858Y0153426D01*
X0055864Y0153364D01*
X0055866Y0153301D01*
X0055864Y0153238D01*
X0055858Y0153176D01*
X0055848Y0153114D01*
X0055835Y0153052D01*
X0055817Y0152992D01*
X0055796Y0152933D01*
X0055771Y0152875D01*
X0055742Y0152819D01*
X0055710Y0152765D01*
X0055675Y0152713D01*
X0055637Y0152664D01*
X0055595Y0152616D01*
X0055551Y0152572D01*
X0055503Y0152530D01*
X0055454Y0152492D01*
X0055402Y0152457D01*
X0055348Y0152425D01*
X0055292Y0152396D01*
X0055234Y0152371D01*
X0055175Y0152350D01*
X0055115Y0152332D01*
X0055053Y0152319D01*
X0054991Y0152309D01*
X0054929Y0152303D01*
X0054866Y0152301D01*
X0054803Y0152303D01*
X0054741Y0152309D01*
X0054679Y0152319D01*
X0054617Y0152332D01*
X0054557Y0152350D01*
X0054498Y0152371D01*
X0054440Y0152396D01*
X0054384Y0152425D01*
X0054330Y0152457D01*
X0054278Y0152492D01*
X0054229Y0152530D01*
X0054181Y0152572D01*
X0054137Y0152616D01*
X0054095Y0152664D01*
X0054057Y0152713D01*
X0054022Y0152765D01*
X0053990Y0152819D01*
X0053961Y0152875D01*
X0053936Y0152933D01*
X0053915Y0152992D01*
X0053897Y0153052D01*
X0053884Y0153114D01*
X0053874Y0153176D01*
X0053868Y0153238D01*
X0053866Y0153301D01*
M02*
