%
M48
M72
T01C0.0138
T02C0.0200
T03C0.0320
T04C0.0400
T05C0.1181
%
T01
X7503Y5810
X12385Y8410
X12385Y11282
X5377Y13172
X5377Y14629
X2582Y14154
X2582Y11282
X2700Y19156
T02
X13920Y17601
X13920Y17101
X13920Y16601
X13920Y16101
X13920Y15601
X13920Y15101
T03
X2633Y2149
X3633Y2149
X11294Y2149
X12294Y2149
X12294Y16400
X11294Y16400
X6586Y16676
X5586Y16676
X3633Y16400
X2633Y16400
T04
X7841Y18526
X8841Y18526
X9841Y18526
X8743Y3235
X8743Y1455
X6183Y1455
X6183Y3235
T05
X1322Y19117
X13605Y19117
M30
