G75*
%MOIN*%
%OFA0B0*%
%FSLAX25Y25*%
%IPPOS*%
%LPD*%
%AMOC8*
5,1,8,0,0,1.08239X$1,22.5*
%
%ADD10C,0.07400*%
%ADD11C,0.05200*%
%ADD12C,0.04000*%
%ADD13C,0.01600*%
%ADD14C,0.03378*%
%ADD15C,0.00984*%
D10*
X0061835Y0014554D03*
X0061835Y0032354D03*
X0087435Y0032354D03*
X0087435Y0014554D03*
X0088414Y0185265D03*
X0098414Y0185265D03*
X0078414Y0185265D03*
D11*
X0065855Y0166761D03*
X0055855Y0166761D03*
X0036328Y0164005D03*
X0026328Y0164005D03*
X0112942Y0164005D03*
X0122942Y0164005D03*
X0122942Y0021485D03*
X0112942Y0021485D03*
X0036328Y0021485D03*
X0026328Y0021485D03*
D12*
X0139202Y0151013D03*
X0139202Y0156013D03*
X0139202Y0161013D03*
X0139202Y0166013D03*
X0139202Y0171013D03*
X0139202Y0176013D03*
D13*
X0004262Y0006916D02*
X0005379Y0005379D01*
X0006916Y0004262D01*
X0008724Y0003675D01*
X0009674Y0003600D01*
X0139595Y0003600D01*
X0140545Y0003675D01*
X0142353Y0004262D01*
X0143890Y0005379D01*
X0145007Y0006916D01*
X0145595Y0008724D01*
X0145669Y0009674D01*
X0145669Y0194713D01*
X0145595Y0195664D01*
X0145007Y0197471D01*
X0143890Y0199008D01*
X0142353Y0200125D01*
X0140545Y0200713D01*
X0139595Y0200787D01*
X0009674Y0200787D01*
X0008724Y0200713D01*
X0006916Y0200125D01*
X0005379Y0199008D01*
X0004262Y0197471D01*
X0003675Y0195664D01*
X0003600Y0194713D01*
X0003600Y0009674D01*
X0003675Y0008724D01*
X0004262Y0006916D01*
X0004495Y0006596D02*
X0144774Y0006596D01*
X0145422Y0008194D02*
X0003847Y0008194D01*
X0003600Y0009793D02*
X0059479Y0009793D01*
X0058832Y0010060D02*
X0060780Y0009254D01*
X0062889Y0009254D01*
X0064837Y0010060D01*
X0066328Y0011551D01*
X0067135Y0013499D01*
X0067135Y0015608D01*
X0066328Y0017556D01*
X0064837Y0019047D01*
X0062889Y0019854D01*
X0060780Y0019854D01*
X0058832Y0019047D01*
X0057342Y0017556D01*
X0056535Y0015608D01*
X0056535Y0013499D01*
X0057342Y0011551D01*
X0058832Y0010060D01*
X0057502Y0011391D02*
X0003600Y0011391D01*
X0003600Y0012990D02*
X0056746Y0012990D01*
X0056535Y0014588D02*
X0003600Y0014588D01*
X0003600Y0016187D02*
X0056774Y0016187D01*
X0057571Y0017785D02*
X0038721Y0017785D01*
X0038634Y0017722D02*
X0039194Y0018129D01*
X0039684Y0018619D01*
X0040091Y0019179D01*
X0040405Y0019796D01*
X0040619Y0020455D01*
X0040728Y0021139D01*
X0040728Y0021485D01*
X0040728Y0021831D01*
X0040619Y0022515D01*
X0040405Y0023174D01*
X0040091Y0023791D01*
X0039684Y0024351D01*
X0039194Y0024841D01*
X0038634Y0025248D01*
X0038017Y0025563D01*
X0037358Y0025777D01*
X0036674Y0025885D01*
X0036328Y0025885D01*
X0036328Y0021485D01*
X0040728Y0021485D01*
X0036328Y0021485D01*
X0036328Y0021485D01*
X0036328Y0017085D01*
X0036674Y0017085D01*
X0037358Y0017193D01*
X0038017Y0017407D01*
X0038634Y0017722D01*
X0040195Y0019384D02*
X0059646Y0019384D01*
X0064023Y0019384D02*
X0085246Y0019384D01*
X0084432Y0019047D02*
X0086380Y0019854D01*
X0088489Y0019854D01*
X0090437Y0019047D01*
X0091928Y0017556D01*
X0092735Y0015608D01*
X0092735Y0013499D01*
X0091928Y0011551D01*
X0090437Y0010060D01*
X0088489Y0009254D01*
X0086380Y0009254D01*
X0084432Y0010060D01*
X0082942Y0011551D01*
X0082135Y0013499D01*
X0082135Y0015608D01*
X0082942Y0017556D01*
X0084432Y0019047D01*
X0083171Y0017785D02*
X0066098Y0017785D01*
X0066895Y0016187D02*
X0082374Y0016187D01*
X0082135Y0014588D02*
X0067135Y0014588D01*
X0066923Y0012990D02*
X0082346Y0012990D01*
X0083102Y0011391D02*
X0066167Y0011391D01*
X0064190Y0009793D02*
X0085079Y0009793D01*
X0089790Y0009793D02*
X0145669Y0009793D01*
X0145669Y0011391D02*
X0091767Y0011391D01*
X0092523Y0012990D02*
X0145669Y0012990D01*
X0145669Y0014588D02*
X0092735Y0014588D01*
X0092495Y0016187D02*
X0145669Y0016187D01*
X0145669Y0017785D02*
X0125335Y0017785D01*
X0125248Y0017722D02*
X0125808Y0018129D01*
X0126298Y0018619D01*
X0126705Y0019179D01*
X0127019Y0019796D01*
X0127233Y0020455D01*
X0127342Y0021139D01*
X0127342Y0021485D01*
X0122942Y0021485D01*
X0122942Y0021485D01*
X0127342Y0021485D01*
X0127342Y0021831D01*
X0127233Y0022515D01*
X0127019Y0023174D01*
X0126705Y0023791D01*
X0126298Y0024351D01*
X0125808Y0024841D01*
X0125248Y0025248D01*
X0124631Y0025563D01*
X0123972Y0025777D01*
X0123288Y0025885D01*
X0122942Y0025885D01*
X0122942Y0021485D01*
X0122942Y0017085D01*
X0123288Y0017085D01*
X0123972Y0017193D01*
X0124631Y0017407D01*
X0125248Y0017722D01*
X0126809Y0019384D02*
X0145669Y0019384D01*
X0145669Y0020982D02*
X0127317Y0020982D01*
X0127212Y0022581D02*
X0145669Y0022581D01*
X0145669Y0024179D02*
X0126423Y0024179D01*
X0123966Y0025778D02*
X0145669Y0025778D01*
X0145669Y0027376D02*
X0089268Y0027376D01*
X0088489Y0027054D02*
X0090437Y0027860D01*
X0091928Y0029351D01*
X0092735Y0031299D01*
X0092735Y0033408D01*
X0091928Y0035356D01*
X0090437Y0036847D01*
X0088489Y0037654D01*
X0086380Y0037654D01*
X0084432Y0036847D01*
X0082942Y0035356D01*
X0082135Y0033408D01*
X0082135Y0031299D01*
X0082942Y0029351D01*
X0084432Y0027860D01*
X0086380Y0027054D01*
X0088489Y0027054D01*
X0085601Y0027376D02*
X0064181Y0027376D01*
X0063946Y0027256D02*
X0064717Y0027650D01*
X0065418Y0028158D01*
X0066030Y0028771D01*
X0066539Y0029471D01*
X0066932Y0030242D01*
X0067199Y0031066D01*
X0067335Y0031921D01*
X0067335Y0032154D01*
X0062035Y0032154D01*
X0062035Y0032554D01*
X0061635Y0032554D01*
X0061635Y0037854D01*
X0061402Y0037854D01*
X0060547Y0037718D01*
X0059723Y0037451D01*
X0058952Y0037058D01*
X0058252Y0036549D01*
X0057639Y0035937D01*
X0057131Y0035236D01*
X0056738Y0034465D01*
X0056470Y0033641D01*
X0056335Y0032786D01*
X0056335Y0032554D01*
X0061635Y0032554D01*
X0061635Y0032154D01*
X0061635Y0032153D02*
X0062035Y0032153D01*
X0062035Y0026854D01*
X0062268Y0026854D01*
X0063123Y0026989D01*
X0063946Y0027256D01*
X0062035Y0027376D02*
X0061635Y0027376D01*
X0061635Y0026854D02*
X0061635Y0032153D01*
X0061635Y0032154D02*
X0056335Y0032154D01*
X0056335Y0031921D01*
X0056470Y0031066D01*
X0056738Y0030242D01*
X0057131Y0029471D01*
X0057639Y0028771D01*
X0058252Y0028158D01*
X0058952Y0027650D01*
X0059723Y0027256D01*
X0060547Y0026989D01*
X0061402Y0026854D01*
X0061635Y0026854D01*
X0061635Y0028975D02*
X0062035Y0028975D01*
X0062035Y0030573D02*
X0061635Y0030573D01*
X0061635Y0032172D02*
X0003600Y0032172D01*
X0003600Y0033770D02*
X0056512Y0033770D01*
X0057227Y0035369D02*
X0003600Y0035369D01*
X0003600Y0036967D02*
X0058828Y0036967D01*
X0061635Y0036967D02*
X0062035Y0036967D01*
X0062035Y0037854D02*
X0062268Y0037854D01*
X0063123Y0037718D01*
X0063946Y0037451D01*
X0064717Y0037058D01*
X0065418Y0036549D01*
X0066030Y0035937D01*
X0066539Y0035236D01*
X0066932Y0034465D01*
X0067199Y0033641D01*
X0067335Y0032786D01*
X0067335Y0032554D01*
X0062035Y0032554D01*
X0062035Y0037854D01*
X0062035Y0035369D02*
X0061635Y0035369D01*
X0061635Y0033770D02*
X0062035Y0033770D01*
X0062035Y0032172D02*
X0082135Y0032172D01*
X0082285Y0033770D02*
X0067157Y0033770D01*
X0066442Y0035369D02*
X0082955Y0035369D01*
X0084724Y0036967D02*
X0064842Y0036967D01*
X0067039Y0030573D02*
X0082435Y0030573D01*
X0083318Y0028975D02*
X0066178Y0028975D01*
X0059488Y0027376D02*
X0003600Y0027376D01*
X0003600Y0025778D02*
X0035303Y0025778D01*
X0035297Y0025777D02*
X0034639Y0025563D01*
X0034021Y0025248D01*
X0033461Y0024841D01*
X0032971Y0024351D01*
X0032564Y0023791D01*
X0032250Y0023174D01*
X0032036Y0022515D01*
X0031928Y0021831D01*
X0031928Y0021485D01*
X0031928Y0021139D01*
X0032036Y0020455D01*
X0032250Y0019796D01*
X0032564Y0019179D01*
X0032971Y0018619D01*
X0033461Y0018129D01*
X0034021Y0017722D01*
X0034639Y0017407D01*
X0035297Y0017193D01*
X0035981Y0017085D01*
X0036327Y0017085D01*
X0036327Y0021485D01*
X0031928Y0021485D01*
X0036327Y0021485D01*
X0036327Y0021485D01*
X0036328Y0021485D01*
X0036327Y0021485D01*
X0036327Y0025885D01*
X0035981Y0025885D01*
X0035297Y0025777D01*
X0036327Y0025778D02*
X0036328Y0025778D01*
X0037352Y0025778D02*
X0121918Y0025778D01*
X0121911Y0025777D02*
X0121253Y0025563D01*
X0120636Y0025248D01*
X0120075Y0024841D01*
X0119586Y0024351D01*
X0119179Y0023791D01*
X0118864Y0023174D01*
X0118650Y0022515D01*
X0118542Y0021831D01*
X0118542Y0021485D01*
X0118542Y0021139D01*
X0118650Y0020455D01*
X0118864Y0019796D01*
X0119179Y0019179D01*
X0119586Y0018619D01*
X0120075Y0018129D01*
X0120636Y0017722D01*
X0121253Y0017407D01*
X0121911Y0017193D01*
X0122595Y0017085D01*
X0122942Y0017085D01*
X0122942Y0021485D01*
X0122942Y0021485D01*
X0122942Y0021485D01*
X0122942Y0025885D01*
X0122595Y0025885D01*
X0121911Y0025777D01*
X0122942Y0025778D02*
X0122942Y0025778D01*
X0122942Y0024179D02*
X0122942Y0024179D01*
X0122942Y0022581D02*
X0122942Y0022581D01*
X0122942Y0021485D02*
X0122942Y0021485D01*
X0118542Y0021485D01*
X0122942Y0021485D01*
X0122942Y0020982D02*
X0122942Y0020982D01*
X0122942Y0019384D02*
X0122942Y0019384D01*
X0122942Y0017785D02*
X0122942Y0017785D01*
X0120549Y0017785D02*
X0114984Y0017785D01*
X0115321Y0017924D02*
X0116502Y0019106D01*
X0117142Y0020650D01*
X0117142Y0022320D01*
X0116502Y0023864D01*
X0115321Y0025046D01*
X0113777Y0025685D01*
X0112106Y0025685D01*
X0110563Y0025046D01*
X0109381Y0023864D01*
X0108742Y0022320D01*
X0108742Y0020650D01*
X0109381Y0019106D01*
X0110563Y0017924D01*
X0112106Y0017285D01*
X0113777Y0017285D01*
X0115321Y0017924D01*
X0116617Y0019384D02*
X0119074Y0019384D01*
X0118567Y0020982D02*
X0117142Y0020982D01*
X0117034Y0022581D02*
X0118671Y0022581D01*
X0119460Y0024179D02*
X0116187Y0024179D01*
X0110899Y0017785D02*
X0091698Y0017785D01*
X0089623Y0019384D02*
X0109266Y0019384D01*
X0108742Y0020982D02*
X0040703Y0020982D01*
X0040598Y0022581D02*
X0108850Y0022581D01*
X0109696Y0024179D02*
X0039809Y0024179D01*
X0036328Y0024179D02*
X0036327Y0024179D01*
X0036327Y0022581D02*
X0036328Y0022581D01*
X0036327Y0020982D02*
X0036328Y0020982D01*
X0036327Y0019384D02*
X0036328Y0019384D01*
X0036327Y0017785D02*
X0036328Y0017785D01*
X0033934Y0017785D02*
X0028370Y0017785D01*
X0028707Y0017924D02*
X0029888Y0019106D01*
X0030528Y0020650D01*
X0030528Y0022320D01*
X0029888Y0023864D01*
X0028707Y0025046D01*
X0027163Y0025685D01*
X0025492Y0025685D01*
X0023948Y0025046D01*
X0022767Y0023864D01*
X0022128Y0022320D01*
X0022128Y0020650D01*
X0022767Y0019106D01*
X0023948Y0017924D01*
X0025492Y0017285D01*
X0027163Y0017285D01*
X0028707Y0017924D01*
X0030003Y0019384D02*
X0032460Y0019384D01*
X0031952Y0020982D02*
X0030528Y0020982D01*
X0030420Y0022581D02*
X0032057Y0022581D01*
X0032846Y0024179D02*
X0029573Y0024179D01*
X0024285Y0017785D02*
X0003600Y0017785D01*
X0003600Y0019384D02*
X0022652Y0019384D01*
X0022128Y0020982D02*
X0003600Y0020982D01*
X0003600Y0022581D02*
X0022235Y0022581D01*
X0023082Y0024179D02*
X0003600Y0024179D01*
X0003600Y0028975D02*
X0057491Y0028975D01*
X0056630Y0030573D02*
X0003600Y0030573D01*
X0003600Y0038566D02*
X0145669Y0038566D01*
X0145669Y0040164D02*
X0003600Y0040164D01*
X0003600Y0041763D02*
X0145669Y0041763D01*
X0145669Y0043361D02*
X0003600Y0043361D01*
X0003600Y0044960D02*
X0145669Y0044960D01*
X0145669Y0046558D02*
X0003600Y0046558D01*
X0003600Y0048157D02*
X0145669Y0048157D01*
X0145669Y0049755D02*
X0003600Y0049755D01*
X0003600Y0051354D02*
X0145669Y0051354D01*
X0145669Y0052952D02*
X0003600Y0052952D01*
X0003600Y0054551D02*
X0145669Y0054551D01*
X0145669Y0056149D02*
X0077730Y0056149D01*
X0077817Y0056236D02*
X0078317Y0057445D01*
X0078317Y0058753D01*
X0077817Y0059962D01*
X0077120Y0060658D01*
X0077120Y0074555D01*
X0084556Y0081991D01*
X0121308Y0081991D01*
X0121984Y0081315D01*
X0123193Y0080814D01*
X0124501Y0080814D01*
X0125710Y0081315D01*
X0126635Y0082240D01*
X0127136Y0083449D01*
X0127136Y0084757D01*
X0126635Y0085966D01*
X0125710Y0086891D01*
X0124501Y0087392D01*
X0123193Y0087392D01*
X0121984Y0086891D01*
X0121268Y0086176D01*
X0082823Y0086176D01*
X0081598Y0084950D01*
X0072936Y0076289D01*
X0072936Y0060658D01*
X0072240Y0059962D01*
X0071739Y0058753D01*
X0071739Y0057445D01*
X0072240Y0056236D01*
X0073165Y0055311D01*
X0074374Y0054810D01*
X0075683Y0054810D01*
X0076891Y0055311D01*
X0077817Y0056236D01*
X0078317Y0057748D02*
X0145669Y0057748D01*
X0145669Y0059346D02*
X0078072Y0059346D01*
X0077120Y0060945D02*
X0145669Y0060945D01*
X0145669Y0062543D02*
X0077120Y0062543D01*
X0077120Y0064142D02*
X0145669Y0064142D01*
X0145669Y0065740D02*
X0077120Y0065740D01*
X0077120Y0067339D02*
X0145669Y0067339D01*
X0145669Y0068937D02*
X0077120Y0068937D01*
X0077120Y0070536D02*
X0145669Y0070536D01*
X0145669Y0072134D02*
X0077120Y0072134D01*
X0077120Y0073733D02*
X0145669Y0073733D01*
X0145669Y0075332D02*
X0077897Y0075332D01*
X0079495Y0076930D02*
X0145669Y0076930D01*
X0145669Y0078529D02*
X0081094Y0078529D01*
X0082692Y0080127D02*
X0145669Y0080127D01*
X0145669Y0081726D02*
X0126121Y0081726D01*
X0127084Y0083324D02*
X0145669Y0083324D01*
X0145669Y0084923D02*
X0127068Y0084923D01*
X0126081Y0086521D02*
X0145669Y0086521D01*
X0145669Y0088120D02*
X0003600Y0088120D01*
X0003600Y0089718D02*
X0145669Y0089718D01*
X0145669Y0091317D02*
X0003600Y0091317D01*
X0003600Y0092915D02*
X0145669Y0092915D01*
X0145669Y0094514D02*
X0003600Y0094514D01*
X0003600Y0096112D02*
X0145669Y0096112D01*
X0145669Y0097711D02*
X0003600Y0097711D01*
X0003600Y0099309D02*
X0145669Y0099309D01*
X0145669Y0100908D02*
X0003600Y0100908D01*
X0003600Y0102506D02*
X0145669Y0102506D01*
X0145669Y0104105D02*
X0003600Y0104105D01*
X0003600Y0105703D02*
X0145669Y0105703D01*
X0145669Y0107302D02*
X0003600Y0107302D01*
X0003600Y0108900D02*
X0145669Y0108900D01*
X0145669Y0110499D02*
X0126174Y0110499D01*
X0126635Y0110961D02*
X0127136Y0112169D01*
X0127136Y0113478D01*
X0126635Y0114687D01*
X0125710Y0115612D01*
X0124501Y0116113D01*
X0123193Y0116113D01*
X0121984Y0115612D01*
X0121288Y0114916D01*
X0055029Y0114916D01*
X0029090Y0140854D01*
X0029105Y0140890D01*
X0029105Y0142198D01*
X0028604Y0143407D01*
X0027679Y0144332D01*
X0026470Y0144833D01*
X0025162Y0144833D01*
X0023953Y0144332D01*
X0023027Y0143407D01*
X0022527Y0142198D01*
X0022527Y0140890D01*
X0023027Y0139681D01*
X0023953Y0138756D01*
X0025162Y0138255D01*
X0025772Y0138255D01*
X0053296Y0110731D01*
X0121288Y0110731D01*
X0121984Y0110035D01*
X0123193Y0109535D01*
X0124501Y0109535D01*
X0125710Y0110035D01*
X0126635Y0110961D01*
X0127106Y0112097D02*
X0145669Y0112097D01*
X0145669Y0113696D02*
X0127046Y0113696D01*
X0126028Y0115294D02*
X0145669Y0115294D01*
X0145669Y0116893D02*
X0053052Y0116893D01*
X0054650Y0115294D02*
X0121667Y0115294D01*
X0121521Y0110499D02*
X0003600Y0110499D01*
X0003600Y0112097D02*
X0051930Y0112097D01*
X0050331Y0113696D02*
X0003600Y0113696D01*
X0003600Y0115294D02*
X0048733Y0115294D01*
X0047134Y0116893D02*
X0003600Y0116893D01*
X0003600Y0118491D02*
X0045536Y0118491D01*
X0043937Y0120090D02*
X0003600Y0120090D01*
X0003600Y0121688D02*
X0042339Y0121688D01*
X0040740Y0123287D02*
X0003600Y0123287D01*
X0003600Y0124885D02*
X0039142Y0124885D01*
X0037543Y0126484D02*
X0003600Y0126484D01*
X0003600Y0128082D02*
X0035945Y0128082D01*
X0034346Y0129681D02*
X0003600Y0129681D01*
X0003600Y0131279D02*
X0032748Y0131279D01*
X0031149Y0132878D02*
X0003600Y0132878D01*
X0003600Y0134476D02*
X0029551Y0134476D01*
X0027952Y0136075D02*
X0003600Y0136075D01*
X0003600Y0137673D02*
X0026354Y0137673D01*
X0023437Y0139272D02*
X0003600Y0139272D01*
X0003600Y0140870D02*
X0022535Y0140870D01*
X0022639Y0142469D02*
X0003600Y0142469D01*
X0003600Y0144068D02*
X0023688Y0144068D01*
X0027944Y0144068D02*
X0145669Y0144068D01*
X0145669Y0145666D02*
X0003600Y0145666D01*
X0003600Y0147265D02*
X0145669Y0147265D01*
X0145669Y0148863D02*
X0142143Y0148863D01*
X0142253Y0148973D02*
X0142802Y0150297D01*
X0142802Y0151729D01*
X0142253Y0153052D01*
X0141793Y0153513D01*
X0142253Y0153973D01*
X0142802Y0155297D01*
X0142802Y0156729D01*
X0142253Y0158052D01*
X0141793Y0158513D01*
X0142253Y0158973D01*
X0142802Y0160297D01*
X0142802Y0161729D01*
X0142253Y0163052D01*
X0141793Y0163513D01*
X0142253Y0163973D01*
X0142802Y0165297D01*
X0142802Y0166729D01*
X0142253Y0168052D01*
X0141793Y0168513D01*
X0142253Y0168973D01*
X0142802Y0170297D01*
X0142802Y0171729D01*
X0142253Y0173052D01*
X0141934Y0173371D01*
X0142153Y0173590D01*
X0142569Y0174213D01*
X0142856Y0174904D01*
X0143002Y0175638D01*
X0143002Y0176013D01*
X0143002Y0176387D01*
X0142856Y0177121D01*
X0142569Y0177813D01*
X0142153Y0178435D01*
X0141624Y0178964D01*
X0141002Y0179380D01*
X0140310Y0179667D01*
X0139576Y0179813D01*
X0139202Y0179813D01*
X0139202Y0176013D01*
X0143002Y0176013D01*
X0139202Y0176013D01*
X0139202Y0176013D01*
X0139202Y0176013D01*
X0139202Y0179813D01*
X0138827Y0179813D01*
X0138093Y0179667D01*
X0137402Y0179380D01*
X0136779Y0178964D01*
X0136250Y0178435D01*
X0135834Y0177813D01*
X0135548Y0177121D01*
X0135402Y0176387D01*
X0135402Y0176013D01*
X0139201Y0176013D01*
X0139201Y0176013D01*
X0135402Y0176013D01*
X0135402Y0175638D01*
X0135548Y0174904D01*
X0135834Y0174213D01*
X0136250Y0173590D01*
X0136469Y0173371D01*
X0136150Y0173052D01*
X0135602Y0171729D01*
X0135602Y0170297D01*
X0136150Y0168973D01*
X0136610Y0168513D01*
X0136150Y0168052D01*
X0135602Y0166729D01*
X0135602Y0165297D01*
X0136150Y0163973D01*
X0136610Y0163513D01*
X0136150Y0163052D01*
X0135602Y0161729D01*
X0135602Y0160297D01*
X0136150Y0158973D01*
X0136610Y0158513D01*
X0136150Y0158052D01*
X0135602Y0156729D01*
X0135602Y0155297D01*
X0136150Y0153973D01*
X0136610Y0153513D01*
X0136150Y0153052D01*
X0135602Y0151729D01*
X0135602Y0150297D01*
X0136150Y0148973D01*
X0137162Y0147961D01*
X0138485Y0147413D01*
X0139918Y0147413D01*
X0141241Y0147961D01*
X0142253Y0148973D01*
X0142802Y0150462D02*
X0145669Y0150462D01*
X0145669Y0152060D02*
X0142664Y0152060D01*
X0141939Y0153659D02*
X0145669Y0153659D01*
X0145669Y0155257D02*
X0142785Y0155257D01*
X0142749Y0156856D02*
X0145669Y0156856D01*
X0145669Y0158454D02*
X0141851Y0158454D01*
X0142701Y0160053D02*
X0145669Y0160053D01*
X0145669Y0161651D02*
X0142802Y0161651D01*
X0142056Y0163250D02*
X0145669Y0163250D01*
X0145669Y0164848D02*
X0142616Y0164848D01*
X0142802Y0166447D02*
X0145669Y0166447D01*
X0145669Y0168045D02*
X0142256Y0168045D01*
X0142531Y0169644D02*
X0145669Y0169644D01*
X0145669Y0171242D02*
X0142802Y0171242D01*
X0142341Y0172841D02*
X0145669Y0172841D01*
X0145669Y0174439D02*
X0142663Y0174439D01*
X0143002Y0176038D02*
X0145669Y0176038D01*
X0145669Y0177636D02*
X0142642Y0177636D01*
X0141219Y0179235D02*
X0145669Y0179235D01*
X0145669Y0180833D02*
X0101478Y0180833D01*
X0101416Y0180771D02*
X0102907Y0182262D01*
X0103714Y0184210D01*
X0103714Y0186319D01*
X0102907Y0188267D01*
X0101416Y0189758D01*
X0099468Y0190565D01*
X0097360Y0190565D01*
X0095412Y0189758D01*
X0093921Y0188267D01*
X0093529Y0187321D01*
X0093511Y0187376D01*
X0093118Y0188147D01*
X0092609Y0188848D01*
X0091997Y0189460D01*
X0091297Y0189969D01*
X0090525Y0190362D01*
X0089702Y0190629D01*
X0088847Y0190765D01*
X0088614Y0190765D01*
X0088614Y0185465D01*
X0088214Y0185465D01*
X0088214Y0190765D01*
X0087981Y0190765D01*
X0087126Y0190629D01*
X0086303Y0190362D01*
X0085532Y0189969D01*
X0084831Y0189460D01*
X0084219Y0188848D01*
X0083710Y0188147D01*
X0083317Y0187376D01*
X0083299Y0187321D01*
X0082907Y0188267D01*
X0081416Y0189758D01*
X0079468Y0190565D01*
X0077360Y0190565D01*
X0075412Y0189758D01*
X0073921Y0188267D01*
X0073114Y0186319D01*
X0073114Y0184210D01*
X0073921Y0182262D01*
X0075412Y0180771D01*
X0077360Y0179965D01*
X0079468Y0179965D01*
X0081416Y0180771D01*
X0082907Y0182262D01*
X0083299Y0183209D01*
X0083317Y0183153D01*
X0083710Y0182382D01*
X0084219Y0181682D01*
X0084831Y0181069D01*
X0085532Y0180561D01*
X0086303Y0180168D01*
X0087126Y0179900D01*
X0087981Y0179765D01*
X0088214Y0179765D01*
X0088214Y0185064D01*
X0088614Y0185064D01*
X0088614Y0179765D01*
X0088847Y0179765D01*
X0089702Y0179900D01*
X0090525Y0180168D01*
X0091297Y0180561D01*
X0091997Y0181069D01*
X0092609Y0181682D01*
X0093118Y0182382D01*
X0093511Y0183153D01*
X0093529Y0183209D01*
X0093921Y0182262D01*
X0095412Y0180771D01*
X0097360Y0179965D01*
X0099468Y0179965D01*
X0101416Y0180771D01*
X0102977Y0182432D02*
X0145669Y0182432D01*
X0145669Y0184030D02*
X0138950Y0184030D01*
X0137585Y0183465D02*
X0140417Y0184638D01*
X0142584Y0186805D01*
X0143757Y0189637D01*
X0143757Y0192703D01*
X0142584Y0195535D01*
X0140417Y0197702D01*
X0137585Y0198876D01*
X0134519Y0198876D01*
X0131687Y0197702D01*
X0129520Y0195535D01*
X0128346Y0192703D01*
X0128346Y0189637D01*
X0129520Y0186805D01*
X0131687Y0184638D01*
X0134519Y0183465D01*
X0137585Y0183465D01*
X0137184Y0179235D02*
X0003600Y0179235D01*
X0003600Y0180833D02*
X0075350Y0180833D01*
X0073851Y0182432D02*
X0003600Y0182432D01*
X0003600Y0184030D02*
X0010319Y0184030D01*
X0011685Y0183465D02*
X0008852Y0184638D01*
X0006685Y0186805D01*
X0005512Y0189637D01*
X0005512Y0192703D01*
X0006685Y0195535D01*
X0008852Y0197702D01*
X0011685Y0198876D01*
X0014750Y0198876D01*
X0017582Y0197702D01*
X0019750Y0195535D01*
X0020923Y0192703D01*
X0020923Y0189637D01*
X0019750Y0186805D01*
X0017582Y0184638D01*
X0014750Y0183465D01*
X0011685Y0183465D01*
X0007861Y0185629D02*
X0003600Y0185629D01*
X0003600Y0187227D02*
X0006510Y0187227D01*
X0005848Y0188826D02*
X0003600Y0188826D01*
X0003600Y0190424D02*
X0005512Y0190424D01*
X0005512Y0192023D02*
X0003600Y0192023D01*
X0003600Y0193621D02*
X0005892Y0193621D01*
X0006554Y0195220D02*
X0003640Y0195220D01*
X0004050Y0196818D02*
X0007968Y0196818D01*
X0006765Y0200015D02*
X0142504Y0200015D01*
X0144320Y0198417D02*
X0138692Y0198417D01*
X0141301Y0196818D02*
X0145219Y0196818D01*
X0145629Y0195220D02*
X0142715Y0195220D01*
X0143377Y0193621D02*
X0145669Y0193621D01*
X0145669Y0192023D02*
X0143757Y0192023D01*
X0143757Y0190424D02*
X0145669Y0190424D01*
X0145669Y0188826D02*
X0143421Y0188826D01*
X0142759Y0187227D02*
X0145669Y0187227D01*
X0145669Y0185629D02*
X0141408Y0185629D01*
X0139202Y0179235D02*
X0139202Y0179235D01*
X0139202Y0177636D02*
X0139202Y0177636D01*
X0139202Y0176038D02*
X0139202Y0176038D01*
X0136062Y0172841D02*
X0003600Y0172841D01*
X0003600Y0174439D02*
X0135740Y0174439D01*
X0135402Y0176038D02*
X0003600Y0176038D01*
X0003600Y0177636D02*
X0135761Y0177636D01*
X0135602Y0171242D02*
X0003600Y0171242D01*
X0003600Y0169644D02*
X0052798Y0169644D01*
X0052295Y0169140D02*
X0051655Y0167596D01*
X0051655Y0165925D01*
X0052295Y0164382D01*
X0053476Y0163200D01*
X0055020Y0162561D01*
X0056691Y0162561D01*
X0058234Y0163200D01*
X0059416Y0164382D01*
X0060055Y0165925D01*
X0060055Y0167596D01*
X0059416Y0169140D01*
X0058234Y0170321D01*
X0056691Y0170961D01*
X0055020Y0170961D01*
X0053476Y0170321D01*
X0052295Y0169140D01*
X0051841Y0168045D02*
X0038090Y0168045D01*
X0038017Y0168082D02*
X0037358Y0168296D01*
X0036674Y0168405D01*
X0036328Y0168405D01*
X0036328Y0164005D01*
X0040728Y0164005D01*
X0040728Y0164351D01*
X0040619Y0165035D01*
X0040405Y0165694D01*
X0040091Y0166311D01*
X0039684Y0166871D01*
X0039194Y0167361D01*
X0038634Y0167768D01*
X0038017Y0168082D01*
X0036328Y0168045D02*
X0036327Y0168045D01*
X0036327Y0168405D02*
X0035981Y0168405D01*
X0035297Y0168296D01*
X0034639Y0168082D01*
X0034021Y0167768D01*
X0033461Y0167361D01*
X0032971Y0166871D01*
X0032564Y0166311D01*
X0032250Y0165694D01*
X0032036Y0165035D01*
X0031928Y0164351D01*
X0031928Y0164005D01*
X0036327Y0164005D01*
X0036327Y0164005D01*
X0036327Y0168405D01*
X0034566Y0168045D02*
X0027548Y0168045D01*
X0027163Y0168205D02*
X0025492Y0168205D01*
X0023948Y0167565D01*
X0022767Y0166384D01*
X0022128Y0164840D01*
X0022128Y0163169D01*
X0022767Y0161626D01*
X0023948Y0160444D01*
X0025492Y0159805D01*
X0027163Y0159805D01*
X0028707Y0160444D01*
X0029888Y0161626D01*
X0030528Y0163169D01*
X0030528Y0164840D01*
X0029888Y0166384D01*
X0028707Y0167565D01*
X0027163Y0168205D01*
X0029825Y0166447D02*
X0032663Y0166447D01*
X0032006Y0164848D02*
X0030524Y0164848D01*
X0030528Y0163250D02*
X0031992Y0163250D01*
X0032036Y0162974D02*
X0032250Y0162316D01*
X0032564Y0161699D01*
X0032971Y0161138D01*
X0033461Y0160649D01*
X0034021Y0160242D01*
X0034639Y0159927D01*
X0035297Y0159713D01*
X0035981Y0159605D01*
X0036327Y0159605D01*
X0036327Y0164005D01*
X0036328Y0164005D01*
X0036328Y0164005D01*
X0040728Y0164005D01*
X0040728Y0163658D01*
X0040619Y0162974D01*
X0040405Y0162316D01*
X0040091Y0161699D01*
X0039684Y0161138D01*
X0039194Y0160649D01*
X0038634Y0160242D01*
X0038017Y0159927D01*
X0037358Y0159713D01*
X0036674Y0159605D01*
X0036328Y0159605D01*
X0036328Y0164005D01*
X0036327Y0164005D01*
X0031928Y0164005D01*
X0031928Y0163658D01*
X0032036Y0162974D01*
X0032599Y0161651D02*
X0029899Y0161651D01*
X0027761Y0160053D02*
X0034392Y0160053D01*
X0036327Y0160053D02*
X0036328Y0160053D01*
X0036327Y0161651D02*
X0036328Y0161651D01*
X0036327Y0163250D02*
X0036328Y0163250D01*
X0036327Y0164848D02*
X0036328Y0164848D01*
X0036327Y0166447D02*
X0036328Y0166447D01*
X0039992Y0166447D02*
X0051655Y0166447D01*
X0052101Y0164848D02*
X0040649Y0164848D01*
X0040663Y0163250D02*
X0053426Y0163250D01*
X0058284Y0163250D02*
X0063426Y0163250D01*
X0063476Y0163200D02*
X0065020Y0162561D01*
X0066691Y0162561D01*
X0068234Y0163200D01*
X0069416Y0164382D01*
X0070055Y0165925D01*
X0070055Y0167596D01*
X0069416Y0169140D01*
X0068234Y0170321D01*
X0066691Y0170961D01*
X0065020Y0170961D01*
X0063476Y0170321D01*
X0062295Y0169140D01*
X0061655Y0167596D01*
X0061655Y0165925D01*
X0062295Y0164382D01*
X0063476Y0163200D01*
X0062101Y0164848D02*
X0059609Y0164848D01*
X0060055Y0166447D02*
X0061655Y0166447D01*
X0061841Y0168045D02*
X0059869Y0168045D01*
X0058912Y0169644D02*
X0062798Y0169644D01*
X0068284Y0163250D02*
X0108742Y0163250D01*
X0108742Y0163169D02*
X0109381Y0161626D01*
X0110563Y0160444D01*
X0112106Y0159805D01*
X0113777Y0159805D01*
X0115321Y0160444D01*
X0116502Y0161626D01*
X0117142Y0163169D01*
X0117142Y0164840D01*
X0116502Y0166384D01*
X0115321Y0167565D01*
X0113777Y0168205D01*
X0112106Y0168205D01*
X0110563Y0167565D01*
X0109381Y0166384D01*
X0108742Y0164840D01*
X0108742Y0163169D01*
X0109371Y0161651D02*
X0040056Y0161651D01*
X0038263Y0160053D02*
X0111508Y0160053D01*
X0114376Y0160053D02*
X0121006Y0160053D01*
X0121253Y0159927D02*
X0121911Y0159713D01*
X0122595Y0159605D01*
X0122942Y0159605D01*
X0123288Y0159605D01*
X0123972Y0159713D01*
X0124631Y0159927D01*
X0125248Y0160242D01*
X0125808Y0160649D01*
X0126298Y0161138D01*
X0126705Y0161699D01*
X0127019Y0162316D01*
X0127233Y0162974D01*
X0127342Y0163658D01*
X0127342Y0164005D01*
X0127342Y0164351D01*
X0127233Y0165035D01*
X0127019Y0165694D01*
X0126705Y0166311D01*
X0126298Y0166871D01*
X0125808Y0167361D01*
X0125248Y0167768D01*
X0124631Y0168082D01*
X0123972Y0168296D01*
X0123288Y0168405D01*
X0122942Y0168405D01*
X0122942Y0164005D01*
X0127342Y0164005D01*
X0122942Y0164005D01*
X0122942Y0164005D01*
X0122942Y0164005D01*
X0122942Y0168405D01*
X0122595Y0168405D01*
X0121911Y0168296D01*
X0121253Y0168082D01*
X0120636Y0167768D01*
X0120075Y0167361D01*
X0119586Y0166871D01*
X0119179Y0166311D01*
X0118864Y0165694D01*
X0118650Y0165035D01*
X0118542Y0164351D01*
X0118542Y0164005D01*
X0122942Y0164005D01*
X0122942Y0159605D01*
X0122942Y0164005D01*
X0122942Y0164005D01*
X0122942Y0164005D01*
X0118542Y0164005D01*
X0118542Y0163658D01*
X0118650Y0162974D01*
X0118864Y0162316D01*
X0119179Y0161699D01*
X0119586Y0161138D01*
X0120075Y0160649D01*
X0120636Y0160242D01*
X0121253Y0159927D01*
X0122942Y0160053D02*
X0122942Y0160053D01*
X0122942Y0161651D02*
X0122942Y0161651D01*
X0122942Y0163250D02*
X0122942Y0163250D01*
X0122942Y0164848D02*
X0122942Y0164848D01*
X0122942Y0166447D02*
X0122942Y0166447D01*
X0122942Y0168045D02*
X0122942Y0168045D01*
X0124704Y0168045D02*
X0136147Y0168045D01*
X0135872Y0169644D02*
X0068912Y0169644D01*
X0069869Y0168045D02*
X0111721Y0168045D01*
X0109444Y0166447D02*
X0070055Y0166447D01*
X0069609Y0164848D02*
X0108745Y0164848D01*
X0114162Y0168045D02*
X0121180Y0168045D01*
X0119277Y0166447D02*
X0116439Y0166447D01*
X0117138Y0164848D02*
X0118620Y0164848D01*
X0118606Y0163250D02*
X0117142Y0163250D01*
X0116513Y0161651D02*
X0119213Y0161651D01*
X0124877Y0160053D02*
X0135703Y0160053D01*
X0135602Y0161651D02*
X0126670Y0161651D01*
X0127277Y0163250D02*
X0136347Y0163250D01*
X0135787Y0164848D02*
X0127263Y0164848D01*
X0126606Y0166447D02*
X0135602Y0166447D01*
X0136552Y0158454D02*
X0003600Y0158454D01*
X0003600Y0156856D02*
X0135654Y0156856D01*
X0135618Y0155257D02*
X0003600Y0155257D01*
X0003600Y0153659D02*
X0136464Y0153659D01*
X0135739Y0152060D02*
X0003600Y0152060D01*
X0003600Y0150462D02*
X0135602Y0150462D01*
X0136260Y0148863D02*
X0003600Y0148863D01*
X0003600Y0160053D02*
X0024894Y0160053D01*
X0022756Y0161651D02*
X0003600Y0161651D01*
X0003600Y0163250D02*
X0022128Y0163250D01*
X0022131Y0164848D02*
X0003600Y0164848D01*
X0003600Y0166447D02*
X0022830Y0166447D01*
X0025107Y0168045D02*
X0003600Y0168045D01*
X0016116Y0184030D02*
X0073189Y0184030D01*
X0073114Y0185629D02*
X0018573Y0185629D01*
X0019925Y0187227D02*
X0073491Y0187227D01*
X0074480Y0188826D02*
X0020587Y0188826D01*
X0020923Y0190424D02*
X0077021Y0190424D01*
X0079807Y0190424D02*
X0086496Y0190424D01*
X0084203Y0188826D02*
X0082348Y0188826D01*
X0082977Y0182432D02*
X0083685Y0182432D01*
X0085156Y0180833D02*
X0081478Y0180833D01*
X0088214Y0180833D02*
X0088614Y0180833D01*
X0088614Y0182432D02*
X0088214Y0182432D01*
X0088214Y0184030D02*
X0088614Y0184030D01*
X0088614Y0185629D02*
X0088214Y0185629D01*
X0088214Y0187227D02*
X0088614Y0187227D01*
X0088614Y0188826D02*
X0088214Y0188826D01*
X0088214Y0190424D02*
X0088614Y0190424D01*
X0090332Y0190424D02*
X0097021Y0190424D01*
X0094480Y0188826D02*
X0092625Y0188826D01*
X0093144Y0182432D02*
X0093851Y0182432D01*
X0095350Y0180833D02*
X0091672Y0180833D01*
X0099807Y0190424D02*
X0128346Y0190424D01*
X0128346Y0192023D02*
X0020923Y0192023D01*
X0020542Y0193621D02*
X0128727Y0193621D01*
X0129389Y0195220D02*
X0019880Y0195220D01*
X0018466Y0196818D02*
X0130803Y0196818D01*
X0133412Y0198417D02*
X0015857Y0198417D01*
X0010577Y0198417D02*
X0004949Y0198417D01*
X0028993Y0142469D02*
X0145669Y0142469D01*
X0145669Y0140870D02*
X0029097Y0140870D01*
X0030673Y0139272D02*
X0145669Y0139272D01*
X0145669Y0137673D02*
X0032271Y0137673D01*
X0033870Y0136075D02*
X0145669Y0136075D01*
X0145669Y0134476D02*
X0035468Y0134476D01*
X0037067Y0132878D02*
X0145669Y0132878D01*
X0145669Y0131279D02*
X0038665Y0131279D01*
X0040264Y0129681D02*
X0145669Y0129681D01*
X0145669Y0128082D02*
X0041862Y0128082D01*
X0043461Y0126484D02*
X0145669Y0126484D01*
X0145669Y0124885D02*
X0045059Y0124885D01*
X0046658Y0123287D02*
X0145669Y0123287D01*
X0145669Y0121688D02*
X0048256Y0121688D01*
X0049855Y0120090D02*
X0145669Y0120090D01*
X0145669Y0118491D02*
X0051453Y0118491D01*
X0078373Y0081726D02*
X0003600Y0081726D01*
X0003600Y0083324D02*
X0079972Y0083324D01*
X0081570Y0084923D02*
X0003600Y0084923D01*
X0003600Y0086521D02*
X0121614Y0086521D01*
X0121573Y0081726D02*
X0084291Y0081726D01*
X0076775Y0080127D02*
X0003600Y0080127D01*
X0003600Y0078529D02*
X0075176Y0078529D01*
X0073578Y0076930D02*
X0003600Y0076930D01*
X0003600Y0075332D02*
X0072936Y0075332D01*
X0072936Y0073733D02*
X0003600Y0073733D01*
X0003600Y0072134D02*
X0072936Y0072134D01*
X0072936Y0070536D02*
X0003600Y0070536D01*
X0003600Y0068937D02*
X0072936Y0068937D01*
X0072936Y0067339D02*
X0003600Y0067339D01*
X0003600Y0065740D02*
X0072936Y0065740D01*
X0072936Y0064142D02*
X0003600Y0064142D01*
X0003600Y0062543D02*
X0072936Y0062543D01*
X0072936Y0060945D02*
X0003600Y0060945D01*
X0003600Y0059346D02*
X0071985Y0059346D01*
X0071739Y0057748D02*
X0003600Y0057748D01*
X0003600Y0056149D02*
X0072327Y0056149D01*
X0090146Y0036967D02*
X0145669Y0036967D01*
X0145669Y0035369D02*
X0091915Y0035369D01*
X0092585Y0033770D02*
X0145669Y0033770D01*
X0145669Y0032172D02*
X0092735Y0032172D01*
X0092434Y0030573D02*
X0145669Y0030573D01*
X0145669Y0028975D02*
X0091551Y0028975D01*
X0143364Y0004997D02*
X0005905Y0004997D01*
X0103640Y0184030D02*
X0133153Y0184030D01*
X0130696Y0185629D02*
X0103714Y0185629D01*
X0103338Y0187227D02*
X0129345Y0187227D01*
X0128683Y0188826D02*
X0102348Y0188826D01*
D14*
X0053769Y0146288D03*
X0053769Y0131721D03*
X0025816Y0141544D03*
X0025816Y0112824D03*
X0075028Y0058099D03*
X0123847Y0084103D03*
X0123847Y0112824D03*
X0026997Y0191564D03*
D15*
X0025816Y0141544D02*
X0025816Y0141170D01*
X0054162Y0112824D01*
X0123847Y0112824D01*
X0123847Y0084103D02*
X0123847Y0084083D01*
X0083690Y0084083D01*
X0075028Y0075422D01*
X0075028Y0058099D01*
M02*
